<?xml version="1.0" encoding="UTF-8"?>
<svg id="Layer_2" data-name="Layer 2" xmlns="http://www.w3.org/2000/svg" viewBox="0 0 395.45 62.52">
  <defs>
    <style>
      .cls-1 {
        fill: #fff;
        stroke-width: 0px;
      }
    </style>
  </defs>
  <g id="Layer_1-2" data-name="Layer 1">
    <g>
      <path class="cls-1" d="M1.95.58h24.38v7.23h-15.81v6.8h15.04v7.23h-15.04v12.69H1.95V.58Z"/>
      <path class="cls-1" d="M28.15,22.85c0-7.09,4.69-12.21,11.21-12.21,2.4,0,4.5.77,6.04,2.11v-1.63h8.19v23.42h-8.19v-1.58c-1.53,1.29-3.64,2.06-6.04,2.06-6.51,0-11.21-5.12-11.21-12.17ZM45.73,22.8c0-2.78-1.87-4.74-4.55-4.74s-4.6,2.01-4.6,4.74,1.92,4.79,4.55,4.79,4.6-1.96,4.6-4.79Z"/>
      <path class="cls-1" d="M58.47,11.11h8.33v1.48c1.58-1.29,3.5-1.96,5.94-1.96,2.2,0,3.83.57,4.98,1.77l-4.84,6.47c-.57-.57-1.44-.96-2.63-.96-2.2,0-3.45,1.29-3.45,3.88v12.74h-8.33V11.11Z"/>
      <path class="cls-1" d="M79.11,11.11h8.33v1.48c1.63-1.29,3.74-1.96,6.13-1.96,2.59,0,4.89,1.05,6.47,2.87,1.77-1.87,4.36-2.87,7.33-2.87,5.46,0,9.48,3.64,9.48,9.68v14.23h-8.33v-13.56c0-1.96-1.34-3.16-3.16-3.16-1.92,0-3.21,1.2-3.21,3.16v13.56h-8.33v-13.56c0-1.96-1.34-3.16-3.16-3.16-1.92,0-3.21,1.2-3.21,3.16v13.56h-8.33V11.11Z"/>
      <path class="cls-1" d="M119.63,22.8c0-7.04,5.46-12.26,12.79-12.26s12.17,4.93,12.17,11.73c0,.91-.1,1.87-.38,3.16l-16.43.1c.72,2.3,2.54,3.54,5.27,3.54,2.25,0,4.02-.77,5.41-2.35l4.36,4.36c-2.35,2.63-5.65,3.98-9.77,3.98-7.9,0-13.41-5.03-13.41-12.26ZM127.77,20.12l9.1-.05c-.53-2.35-2.01-3.54-4.36-3.54s-4.07,1.29-4.74,3.59Z"/>
      <path class="cls-1" d="M147.74,11.11h8.33v1.48c1.58-1.29,3.5-1.96,5.94-1.96,2.2,0,3.83.57,4.98,1.77l-4.84,6.47c-.57-.57-1.44-.96-2.63-.96-2.2,0-3.45,1.29-3.45,3.88v12.74h-8.33V11.11Z"/>
      <path class="cls-1" d="M172.79,9.34c-1.68-.38-3.16-2.06-3.16-4.31,0-2.68,2.06-4.93,4.79-4.93,2.59,0,4.84,2.16,4.84,4.93,0,1.1-.33,2.49-1.63,4.84l-3.98,7.38-3.93-2.16,3.07-5.75Z"/>
      <path class="cls-1" d="M178.49,30.8l4.55-4.65c1.53,1.63,3.74,2.54,6.18,2.54,1.39,0,2.16-.38,2.16-1.1,0-2.97-11.06-.86-11.06-9.58,0-4.45,3.88-7.62,9.82-7.62,4.07,0,7.95,1.39,10.15,4.12l-4.6,4.65c-1.53-1.72-3.54-2.3-5.08-2.3s-2.06.43-2.06,1.15c0,2.59,10.97.86,10.97,9.63,0,4.65-3.83,7.57-9.87,7.57-4.26,0-8.72-1.77-11.16-4.41Z"/>
      <path class="cls-1" d="M211.06,17.53c0-10.01,7.81-17.53,18.06-17.53,5.36,0,9.68,1.82,12.88,4.79l-5.75,5.75c-1.63-1.82-3.98-2.87-7.14-2.87-5.46,0-9.34,3.83-9.34,9.87s3.88,9.91,9.34,9.91c3.21,0,5.56-1.01,7.33-2.87l5.75,5.75c-3.31,2.97-7.38,4.74-12.98,4.74-10.3,0-18.15-7.52-18.15-17.53Z"/>
      <path class="cls-1" d="M243.29,22.75c0-6.95,5.56-12.21,13.08-12.21s13.08,5.22,13.08,12.21-5.56,12.31-13.03,12.31-13.12-5.27-13.12-12.31ZM260.97,22.8c0-2.87-1.87-4.79-4.6-4.79s-4.6,1.96-4.6,4.84,1.87,4.79,4.6,4.79,4.6-1.96,4.6-4.84Z"/>
      <path class="cls-1" d="M272.75,11.11h8.33v1.53c1.68-1.29,3.83-2.01,6.37-2.01,5.03,0,8.81,3.88,8.81,8.77v15.14h-8.33v-13.22c0-2.16-1.44-3.5-3.4-3.5s-3.45,1.34-3.45,3.5v13.22h-8.33V11.11Z"/>
      <path class="cls-1" d="M300.67,11.11h8.33v1.53c1.68-1.29,3.83-2.01,6.37-2.01,5.03,0,8.81,3.88,8.81,8.77v15.14h-8.33v-13.22c0-2.16-1.44-3.5-3.4-3.5s-3.45,1.34-3.45,3.5v13.22h-8.33V11.11Z"/>
      <path class="cls-1" d="M327.01,22.8c0-7.04,5.46-12.26,12.79-12.26s12.17,4.93,12.17,11.73c0,.91-.1,1.87-.38,3.16l-16.43.1c.72,2.3,2.54,3.54,5.27,3.54,2.25,0,4.02-.77,5.41-2.35l4.36,4.36c-2.35,2.63-5.65,3.98-9.77,3.98-7.9,0-13.41-5.03-13.41-12.26ZM335.15,20.12l9.1-.05c-.53-2.35-2.01-3.54-4.36-3.54s-4.07,1.29-4.74,3.59Z"/>
      <path class="cls-1" d="M353.54,22.85c0-7.09,5.75-12.31,13.27-12.31,3.64,0,6.66,1.25,9.1,3.64l-5.27,5.27c-.96-.96-2.16-1.44-3.83-1.44-2.73,0-4.79,1.92-4.79,4.79s2.11,4.84,4.79,4.84c1.82,0,3.07-.62,3.98-1.68l5.32,5.27c-2.63,2.59-5.56,3.83-9.39,3.83-7.47,0-13.17-5.17-13.17-12.21Z"/>
      <path class="cls-1" d="M381.95,18.06h-5.17v-6.95h5.17V1.44h8.33v9.68h5.17v6.95h-5.17v16.48h-8.33v-16.48Z"/>
    </g>
    <g>
      <path class="cls-1" d="M0,55.5c0-3.92,2.89-6.98,6.78-6.98,2.08,0,3.74.79,4.96,2.08l-.99.99c-.95-1.05-2.31-1.68-3.98-1.68-3.04,0-5.28,2.37-5.28,5.6s2.23,5.62,5.3,5.62c1.74,0,3.1-.65,4.05-1.7l.99,1.01c-1.23,1.31-2.93,2.1-5,2.1-3.94,0-6.84-3.08-6.84-7.02Z"/>
      <path class="cls-1" d="M15.11,55.5c0-3.92,2.95-6.98,6.78-6.98s6.8,3.07,6.8,7-2.95,7-6.76,7-6.82-3.1-6.82-7.02ZM27.19,55.5c0-3.2-2.23-5.6-5.3-5.6s-5.28,2.37-5.28,5.6,2.23,5.62,5.28,5.62,5.3-2.37,5.3-5.62Z"/>
      <path class="cls-1" d="M33.48,48.71h1.03l7.95,10.82v-10.82h1.46v13.61h-1.03l-7.97-10.82v10.82h-1.44v-13.61Z"/>
      <path class="cls-1" d="M49.36,48.71h1.03l7.95,10.82v-10.82h1.46v13.61h-1.03l-7.97-10.82v10.82h-1.44v-13.61Z"/>
      <path class="cls-1" d="M65.23,48.71h8.84v1.32h-7.4v4.67h6.88v1.29h-6.88v5h7.51v1.32h-8.96v-13.61Z"/>
      <path class="cls-1" d="M77.87,55.5c0-3.92,2.89-6.98,6.78-6.98,2.08,0,3.74.79,4.96,2.08l-.99.99c-.95-1.05-2.31-1.68-3.97-1.68-3.05,0-5.28,2.37-5.28,5.6s2.23,5.62,5.3,5.62c1.74,0,3.1-.65,4.05-1.7l.99,1.01c-1.23,1.31-2.93,2.1-5,2.1-3.94,0-6.84-3.08-6.84-7.02Z"/>
      <path class="cls-1" d="M97.62,50.04h-4.79v-1.32h11.04v1.32h-4.79v12.28h-1.46v-12.28Z"/>
      <path class="cls-1" d="M108.32,48.71h1.44v13.61h-1.44v-13.61Z"/>
      <path class="cls-1" d="M115.22,48.71h1.03l7.95,10.82v-10.82h1.46v13.61h-1.03l-7.97-10.82v10.82h-1.44v-13.61Z"/>
      <path class="cls-1" d="M130.43,55.5c0-3.96,2.97-7,6.92-7,2.18,0,4.09.91,5.28,2.49l-1.01,1.01c-.95-1.36-2.49-2.1-4.27-2.1-3.2,0-5.42,2.33-5.42,5.62s2.21,5.6,5.28,5.6c2.85,0,4.71-1.66,4.94-4.59h-5.08v-1.32h6.62v.22c0,4.59-2.63,7.08-6.45,7.08s-6.82-3.05-6.82-7Z"/>
      <path class="cls-1" d="M154.59,48.71h8.58v1.32h-7.14v4.81h6.8v1.33h-6.8v6.15h-1.44v-13.61Z"/>
      <path class="cls-1" d="M171.1,48.71h1.09l5.52,13.61h-1.56l-1.42-3.54h-6.23l-1.42,3.54h-1.54l5.58-13.61ZM174.21,57.49l-2.59-6.49-2.61,6.49h5.2Z"/>
      <path class="cls-1" d="M182,48.71h4.88c2.63,0,4.23,1.56,4.23,3.78s-1.54,3.68-4.05,3.74l5.02,6.09h-1.86l-4.94-6.09h-1.84v6.09h-1.44v-13.61ZM183.44,49.98v5.02h3.44c1.8,0,2.77-.97,2.77-2.51,0-1.46-.97-2.51-2.77-2.51h-3.44Z"/>
      <path class="cls-1" d="M196.22,48.71h1.03l5.5,9.04,5.52-9.04h1.03v13.61h-1.46v-10.44l-4.57,7.49h-1.03l-4.57-7.49v10.44h-1.44v-13.61Z"/>
      <path class="cls-1" d="M214.73,48.71h8.84v1.32h-7.4v4.67h6.88v1.29h-6.88v5h7.51v1.32h-8.96v-13.61Z"/>
      <path class="cls-1" d="M228.35,48.71h4.88c2.63,0,4.23,1.56,4.23,3.78s-1.54,3.68-4.05,3.74l5.02,6.09h-1.86l-4.94-6.09h-1.84v6.09h-1.44v-13.61ZM229.79,49.98v5.02h3.44c1.8,0,2.77-.97,2.77-2.51,0-1.46-.97-2.51-2.77-2.51h-3.44Z"/>
      <path class="cls-1" d="M241.14,60.22l1.01-.99c.93,1.31,2.12,1.92,3.8,1.92s2.93-.83,2.93-2.23c0-3.82-6.82-2-6.82-6.86,0-2.2,1.72-3.54,4.11-3.54,1.76,0,3.16.73,4.09,1.9l-.99.99c-.85-1.01-1.82-1.54-3.14-1.54-1.58,0-2.61.79-2.61,2.1,0,3.54,6.82,1.82,6.82,6.84,0,2.35-1.72,3.72-4.45,3.72-2.12,0-3.6-.83-4.75-2.29Z"/>
      <path class="cls-1" d="M265.31,48.71h1.09l5.52,13.61h-1.56l-1.42-3.54h-6.23l-1.42,3.54h-1.54l5.58-13.61ZM268.41,57.49l-2.59-6.49-2.61,6.49h5.2Z"/>
      <path class="cls-1" d="M276.2,48.71h1.03l7.95,10.82v-10.82h1.46v13.61h-1.03l-7.97-10.82v10.82h-1.44v-13.61Z"/>
      <path class="cls-1" d="M292.08,48.71h4.92c3.96,0,6.9,2.89,6.9,6.8s-2.93,6.8-6.86,6.8h-4.96v-13.61ZM293.52,50.06v10.94h3.44c3.2,0,5.44-2.27,5.44-5.5s-2.25-5.44-5.44-5.44h-3.44Z"/>
      <path class="cls-1" d="M314.9,48.71h5.02c2.53,0,3.96,1.48,3.96,3.42,0,1.3-.59,2.31-1.72,2.93,1.48.65,2.33,1.88,2.33,3.44,0,2.2-1.64,3.82-4.45,3.82h-5.14v-13.61ZM316.34,49.98v4.55h3.7c1.46,0,2.39-.83,2.39-2.27s-1.01-2.27-2.55-2.27h-3.54ZM316.34,55.79v5.24h3.8c1.78,0,2.89-1.11,2.89-2.63s-1.09-2.61-2.77-2.61h-3.92Z"/>
      <path class="cls-1" d="M329.06,57.44v-8.72h1.46v8.64c0,2.29,1.58,3.76,3.68,3.76s3.66-1.46,3.66-3.74v-8.66h1.44v8.74c0,2.91-2.17,5.06-5.1,5.06s-5.14-2.18-5.14-5.08Z"/>
      <path class="cls-1" d="M348.4,56.27l-5.1-7.55h1.7l4.13,6.17,4.17-6.17h1.64l-5.08,7.48v6.13h-1.46v-6.05Z"/>
      <path class="cls-1" d="M358.88,48.71h8.84v1.32h-7.4v4.67h6.88v1.29h-6.88v5h7.51v1.32h-8.96v-13.61Z"/>
      <path class="cls-1" d="M372.5,48.71h4.88c2.63,0,4.23,1.56,4.23,3.78s-1.54,3.68-4.05,3.74l5.02,6.09h-1.86l-4.94-6.09h-1.84v6.09h-1.44v-13.61ZM373.95,49.98v5.02h3.44c1.8,0,2.77-.97,2.77-2.51,0-1.46-.97-2.51-2.77-2.51h-3.44Z"/>
      <path class="cls-1" d="M385.3,60.22l1.01-.99c.93,1.31,2.12,1.92,3.8,1.92s2.93-.83,2.93-2.23c0-3.82-6.82-2-6.82-6.86,0-2.2,1.72-3.54,4.11-3.54,1.76,0,3.16.73,4.09,1.9l-.99.99c-.85-1.01-1.82-1.54-3.14-1.54-1.58,0-2.61.79-2.61,2.1,0,3.54,6.82,1.82,6.82,6.84,0,2.35-1.72,3.72-4.45,3.72-2.12,0-3.6-.83-4.75-2.29Z"/>
    </g>
  </g>
</svg>